# xmcd
# Copyright (C) 1995-1998 Ti Kan
#
# Track frame offsets:
#       150
#       15727
#       30233
#       46181
#       56304
#       67947
#       83435
#       98095
#
# Disc length: 1517 seconds
#
# Revision: 0
# Processed by: cddbd v1.5.1PL2 Copyright (c) Steve Scherf et al.
# Submitted via: CD-Transfer v1.0
#
DISCID=4a05eb08
DTITLE=Ko³ysanki Utulanki - 
DYEAR=1900
DGENRE=
TTITLE0=Kolory Zagadka
TTITLE1=Rogalik
TTITLE2=Dobrej Nocy I Sza
TTITLE3=El Noi La  Mare
TTITLE4=Canco Dle Lladre
TTITLE5=Kolory Rozwi¹zanie Zagadki
TTITLE6=Rogalik Inst.
TTITLE7=Dobrej Nocy Sza Instr
EXTD=
EXTT0=
EXTT1=
EXTT2=
EXTT3=
EXTT4=
EXTT5=
EXTT6=
EXTT7=
PLAYORDER=
